HIERARCHY
ROOT Hips
{
	OFFSET 0.00000 0.00000 0.00000
	CHANNELS 6 Xposition Yposition Zposition Zrotation Yrotation Xrotation 
	JOINT LHipJoint
	{
		OFFSET 0 0 0
		CHANNELS 3 Zrotation Yrotation Xrotation
		JOINT LeftHip
		{
			OFFSET 1.64549 -1.70879 0.84566
			CHANNELS 3 Zrotation Yrotation Xrotation
			JOINT LeftKnee
			{
				OFFSET 2.24963 -6.18082 0.00000
				CHANNELS 3 Zrotation Yrotation Xrotation
				JOINT LeftAnkle
				{
					OFFSET 2.71775 -7.46697 0.00000
					CHANNELS 3 Zrotation Yrotation Xrotation
					JOINT LeftToe
					{
						OFFSET 0.18768 -0.51564 2.24737
						CHANNELS 3 Zrotation Yrotation Xrotation
						End Site
						{
							OFFSET 0.00000 -0.00000 1.15935
						}
					}
				}
			}
		}
	}
	JOINT RHipJoint
	{
		OFFSET 0 0 0
		CHANNELS 3 Zrotation Yrotation Xrotation
		JOINT RightHip
		{
			OFFSET -1.58830 -1.70879 0.84566
			CHANNELS 3 Zrotation Yrotation Xrotation
			JOINT RightKnee
			{
				OFFSET -2.25006 -6.18201 0.00000
				CHANNELS 3 Zrotation Yrotation Xrotation
				JOINT RightAnkle
				{
					OFFSET -2.72829 -7.49593 0.00000
					CHANNELS 3 Zrotation Yrotation Xrotation
					JOINT RightToe
					{
						OFFSET -0.21541 -0.59185 2.10643
						CHANNELS 3 Zrotation Yrotation Xrotation
						End Site
						{
							OFFSET -0.00000 -0.00000 1.09838
						}
					}
				}
			}
		}
	}
	JOINT lowerback
	{
		OFFSET 0 0 0
		CHANNELS 3 Zrotation Yrotation Xrotation
		JOINT Chest
		{
			OFFSET 0.03142 2.10496 -0.11038
			CHANNELS 3 Zrotation Yrotation Xrotation
			JOINT Chest2
			{
				OFFSET -0.01863 2.10897 -0.06956
				CHANNELS 3 Zrotation Yrotation Xrotation
				JOINT lowerneck
				{
					OFFSET 0 0 0
					CHANNELS 3 Zrotation Yrotation Xrotation
					JOINT Neck
					{
						OFFSET -0.02267 1.73238 0.00451
						CHANNELS 3 Zrotation Yrotation Xrotation
						JOINT Head
						{
							OFFSET -0.05808 1.54724 -0.61749
							CHANNELS 3 Zrotation Yrotation Xrotation
							End Site
							{
								OFFSET -0.01396 1.71468 -0.21082
							}
						}
					}
				}
				JOINT LeftCollar
				{
					OFFSET 0 0 0
					CHANNELS 3 Zrotation Yrotation Xrotation
					JOINT LeftShoulder
					{
						OFFSET 3.44898 0.50298 0.21920
CHANNELS 3 Zrotation Xrotation Yrotation
						JOINT LeftElbow
						{
OFFSET 0 -5.419170 -0.000000
CHANNELS 3 Zrotation Xrotation Yrotation
							JOINT LeftWrist
							{
OFFSET 0 -2.443730 0.000000
CHANNELS 3 Zrotation Xrotation Yrotation
								JOINT lhand
								{
									OFFSET 0 0 0
CHANNELS 3 Zrotation Xrotation Yrotation
									JOINT LFingers
									{
OFFSET 0 -0.727500 0.000000
CHANNELS 3 Zrotation Xrotation Yrotation
										End Site
										{
OFFSET 0 -0.586530 0.000000
										}
									}
								}
								JOINT LThumb
								{
OFFSET 0 0.000000 0.000000
CHANNELS 3 Zrotation Xrotation Yrotation
									End Site
									{
OFFSET 0 -0.595490 0.595490
									}
								}
							}
						}
					}
				}
				JOINT RightCollar
				{
					OFFSET 0 0 0
					CHANNELS 3 Zrotation Yrotation Xrotation
					JOINT RightShoulder
					{
						OFFSET -3.23015 0.55830 0.31051
CHANNELS 3 Zrotation Xrotation Yrotation
						JOINT RightElbow
						{
OFFSET 0 -5.589760 0.000140
CHANNELS 3 Zrotation Xrotation Yrotation
							JOINT RightWrist
							{
OFFSET 0 -2.480600 0.000000
CHANNELS 3 Zrotation Xrotation Yrotation
								JOINT rhand
								{
									OFFSET 0 0 0
CHANNELS 3 Zrotation Xrotation Yrotation
									JOINT RFingers
									{
OFFSET 0 -0.816010 0.000000
CHANNELS 3 Zrotation Xrotation Yrotation
										End Site
										{
OFFSET 0 -0.657890 0.000000
										}
									}
								}
								JOINT RThumb
								{
OFFSET 0 0.000000 0.000000
CHANNELS 3 Zrotation Xrotation Yrotation
									End Site
									{
OFFSET 0 -0.667930 0.667930
									}
								}
							}
						}
					}
				}
			}
		}
	}
}
MOTION
Frames: 6
Frame Time: 0.008333333333333333
4.322800 16.592900 -15.236200 -3.200000 9.033800 30.179500 0.000000 0.000000 0.000000 -26.207800 10.581600 -26.766300 4.322700 12.577900 37.808200 -3.491400 47.639300 22.192600 0.294300 3.488500 9.641900 0.000000 0.000000 0.000000 28.597400 18.482100 -41.035100 -2.437500 -9.723300 28.085300 -1.752600 -21.229600 -39.835000 -1.022000 -6.431200 18.040800 3.953400 -3.012000 -18.546000 5.282800 -4.538700 -11.668700 2.640000 -2.313300 -2.080300 -2.878200 -8.360500 -14.273300 -2.820500 -11.072600 39.370800 -2.721600 -5.448700 16.537800 0.000000 -0.000000 0.000000 3.784200 26.434300 -31.061300 17.646700 -27.702400 4.383700 2.228600 -5.632300 -16.259200 0.000000 0.000000 0.000000 -7.125000 0.000000 0.000000 -23.480100 44.862900 -0.084200 0.000000 -0.000000 0.000000 -15.640800 21.454300 29.501200 -12.963400 -21.233600 -2.440000 4.675300 -17.919000 -12.413600 0.000000 0.000000 0.000000 7.125000 0.000000 -0.000000 21.786600 17.952700 15.148400
4.324516 16.579296 -15.236681 -3.237200 9.075499 30.204196 0.000000 0.000000 0.000000 -26.100738 10.391794 -26.778861 4.357710 12.621769 37.968758 0.585397 41.820867 32.149600 0.127893 -2.298245 -6.330861 0.000000 0.000000 0.000000 29.002083 17.862343 -40.912924 -2.402220 -9.657961 27.876141 -2.327868 -19.261448 -40.731592 -1.406403 -7.499858 21.205747 3.999680 -2.962304 -18.480092 5.312187 -4.464743 -11.818140 2.669725 -2.278952 -2.281696 -2.880276 -7.984272 -14.524495 -2.553551 -10.630526 39.964456 -2.582521 -5.203491 16.947929 0.000000 0.000000 0.000000 3.754087 26.416307 -31.189261 17.434153 -27.426482 4.285370 1.980085 -5.532178 -16.441273 0.000000 0.000000 0.000000 -7.125000 0.000000 0.000000 -23.770276 45.000198 0.000148 0.000000 0.000000 0.000000 -15.523447 21.555412 29.375918 -12.928670 -21.182618 -2.427464 2.403844 -17.744513 -12.283903 0.000000 0.000000 0.000000 7.125000 0.000000 0.000000 20.323262 18.063500 13.925325
4.319628 16.578200 -15.238608 -3.161313 9.042762 30.271248 0.000000 0.000000 0.000000 -26.134778 10.289139 -26.818553 4.361205 12.626181 37.984796 -0.031530 42.952416 30.692252 0.046310 -1.259232 -3.464355 0.000000 0.000000 0.000000 28.883265 18.004032 -40.892996 -2.387573 -9.630618 27.788664 -2.356865 -19.284357 -40.882906 -1.440728 -7.588393 21.470777 3.849523 -2.944541 -18.514173 5.293451 -4.415028 -11.909018 2.744471 -2.246790 -2.354077 -2.429521 -7.375678 -15.280454 -2.551019 -9.873522 40.875014 -2.620398 -4.781896 17.617574 0.000000 0.000000 0.000000 3.752535 26.319738 -31.156438 17.369113 -27.341777 4.255458 1.799838 -5.478882 -16.629922 0.000000 0.000000 0.000000 -7.125000 0.000000 0.000000 -24.005167 45.151223 0.095451 0.000000 0.000000 0.000000 -15.417474 21.550115 29.413497 -12.837823 -21.049101 -2.394723 0.745544 -17.761072 -13.826349 0.000000 0.000000 0.000000 7.125000 0.000000 0.000000 19.070604 16.585316 13.613356
4.322195 16.576614 -15.230408 -3.308400 9.033846 30.220234 0.000000 0.000000 0.000000 -25.960546 10.318331 -26.718306 4.355199 12.618617 37.956984 0.911427 41.670681 33.241508 0.094999 -1.640016 -4.521001 0.000000 0.000000 0.000000 29.216371 17.654491 -40.894047 -2.384457 -9.624737 27.769841 -2.273788 -19.112839 -40.355572 -1.400650 -7.486070 21.164033 4.038379 -2.842593 -18.468653 5.265613 -4.292524 -12.079103 2.642079 -2.197863 -2.585508 -1.995255 -6.941419 -16.163965 -2.636725 -9.395268 42.309564 -2.788354 -4.468418 18.664206 0.000000 0.000000 0.000000 3.831031 26.682082 -31.173444 17.493069 -27.503165 4.312581 1.927687 -5.435792 -16.847925 0.000000 0.000000 0.000000 -7.125000 0.000000 0.000000 -23.985157 45.365601 0.229908 0.000000 0.000000 0.000000 -15.282653 21.987255 29.728667 -12.994267 -21.278783 -2.451221 -1.100088 -18.004324 -14.651492 0.000000 0.000000 0.000000 7.125000 0.000000 0.000000 17.788293 15.754892 12.937290
4.320994 16.571964 -15.224942 -3.376949 8.884327 30.083213 0.000000 0.000000 0.000000 -25.928130 10.429236 -26.533970 4.335919 12.594499 37.868945 1.650934 39.674309 34.717919 0.402460 -4.072300 -11.280324 0.000000 0.000000 0.000000 29.221287 17.878467 -40.632871 -2.382145 -9.620340 27.755819 -2.115905 -19.519270 -39.972468 -1.303737 -7.231634 20.404205 4.010721 -2.728672 -18.388798 5.247626 -4.132359 -12.087588 2.668058 -2.115829 -2.637838 -1.613600 -6.438716 -16.752601 -2.571837 -8.809291 43.096430 -2.793289 -4.121874 19.309341 0.000000 0.000000 0.000000 3.738144 26.669768 -30.949299 17.444975 -27.440568 4.290369 2.090256 -5.444429 -16.783262 0.000000 0.000000 0.000000 -7.125000 0.000000 0.000000 -23.816589 45.326046 0.203539 0.000000 0.000000 0.000000 -15.107431 22.065297 29.513308 -13.120532 -21.463550 -2.497225 -2.470067 -17.828546 -14.434400 0.000000 0.000000 0.000000 7.125000 0.000000 0.000000 16.906282 15.916416 12.170524
4.327260 16.568176 -15.208424 -3.537801 8.616925 29.616617 0.000000 0.000000 0.000000 -25.851528 10.982572 -26.023587 4.298449 12.547302 37.696653 1.204628 40.420085 33.516880 0.255595 -3.251676 -8.980399 0.000000 0.000000 0.000000 29.608308 17.449893 -40.144007 -2.389862 -9.634842 27.802038 -1.788967 -20.005691 -38.854124 -1.009203 -6.369669 17.868530 4.055773 -2.551818 -18.219759 5.222937 -3.903157 -11.956428 2.653696 -2.002030 -2.589114 -1.596603 -6.001864 -15.683341 -1.926431 -8.365188 42.543186 -2.305514 -3.886311 18.720997 0.000000 0.000000 0.000000 3.626238 26.571343 -30.439220 17.338998 -27.302470 4.241745 1.896861 -5.163873 -16.047478 0.000000 0.000000 0.000000 -7.125000 0.000000 0.000000 -23.681668 44.630338 -0.229659 0.000000 0.000000 0.000000 -14.845057 21.914208 28.511016 -12.833912 -21.042997 -2.393553 -3.743841 -17.022077 -15.022290 0.000000 0.000000 0.000000 7.125000 0.000000 0.000000 16.027090 15.301288 11.701784
